<?xml version="1.0" encoding="UTF-8" standalone="no"?>
<svg
   width="48px"
   height="48px"
   viewBox="0 0 48 48"
   version="1.1"
   id="svg6"
   sodipodi:docname="busy01.svg"
   inkscape:version="1.4 (e7c3feb100, 2024-10-09)"
   xmlns:inkscape="http://www.inkscape.org/namespaces/inkscape"
   xmlns:sodipodi="http://sodipodi.sourceforge.net/DTD/sodipodi-0.dtd"
   xmlns="http://www.w3.org/2000/svg"
   xmlns:svg="http://www.w3.org/2000/svg"
   xmlns:rdf="http://www.w3.org/1999/02/22-rdf-syntax-ns#"
   xmlns:cc="http://creativecommons.org/ns#"
   xmlns:dc="http://purl.org/dc/elements/1.1/">
  <metadata
     id="metadata12">
    <rdf:RDF>
      <cc:Work
         rdf:about="">
        <dc:format>image/svg+xml</dc:format>
        <dc:type
           rdf:resource="http://purl.org/dc/dcmitype/StillImage" />
      </cc:Work>
    </rdf:RDF>
  </metadata>
  <defs
     id="defs10" />
  <sodipodi:namedview
     pagecolor="#ffffff"
     bordercolor="#666666"
     borderopacity="1"
     objecttolerance="10"
     gridtolerance="10"
     guidetolerance="10"
     inkscape:pageopacity="0"
     inkscape:pageshadow="2"
     inkscape:window-width="1419"
     inkscape:window-height="930"
     id="namedview8"
     showgrid="false"
     inkscape:zoom="5.6568543"
     inkscape:cx="-9.2807765"
     inkscape:cy="25.367456"
     inkscape:window-x="220"
     inkscape:window-y="75"
     inkscape:window-maximized="0"
     inkscape:current-layer="svg6"
     inkscape:showpageshadow="2"
     inkscape:pagecheckerboard="0"
     inkscape:deskcolor="#d1d1d1" />
  <path
     d="M24.2,47.5 C11.1,47.5 0.5,37 0.5,24 C0.5,11 11.1,0.5 24.2,0.5 C37.3,0.5 47.9,11 47.9,24 C47.9,37 37.3,47.5 24.2,47.5 Z M24.2,3.5 C12.8,3.5 3.5,12.7 3.5,24 C3.5,35.3 12.8,44.5 24.2,44.5 C35.6,44.5 44.9,35.3 44.9,24 C44.9,12.7 35.6,3.5 24.2,3.5 Z"
     fill="#212120"
     id="path2" />
  <path
     d="M24.2,47.5 C11.1,47.5 0.5,37 0.5,24 C0.5,23.2 1.2,22.5 2,22.5 C2.8,22.5 3.5,23.2 3.5,24 C3.5,35.3 12.8,44.5 24.2,44.5 C25,44.5 25.7,45.2 25.7,46 C25.7,46.8 25,47.5 24.2,47.5 Z"
     fill="#1793d1"
     id="path4"
     style="fill:#e6e6e6" />
  <path
     style="fill:#e6e6e6;stroke-width:0.101695"
     d="M 22.525424,47.390795 C 13.983753,46.729263 6.5113404,41.678639 2.8892337,34.118644 1.4042361,31.019184 0.56213171,27.543951 0.56053656,24.508474 0.5600197,23.524908 0.72732578,23.12996 1.2956807,22.77307 c 0.6458819,-0.405571 1.6188276,-0.100278 2.0167169,0.63281 0.050328,0.09273 0.1369083,0.882853 0.1924016,1.755838 0.2221106,3.494101 1.2343849,6.697639 3.030151,9.589501 3.5781938,5.762243 9.8251248,9.424295 16.6401678,9.754737 1.439286,0.06979 1.716737,0.153895 2.130755,0.645927 0.532118,0.632386 0.420072,1.449827 -0.270974,1.976913 -0.430721,0.328527 -0.950195,0.382762 -2.509475,0.261999 z"
     id="path1" />
  <path
     style="fill:#e6e6e6;stroke-width:0.00390625"
     d="m 23.90625,47.49582 c -0.885956,-0.0099 -1.70855,-0.06466 -2.645508,-0.176088 l -0.04004,-0.0048 v -0.02858 c 0,-0.02085 0.0014,-0.02858 0.0051,-0.02858 0.0028,0 0.06739,0.0079 0.143555,0.0175 0.542921,0.06859 1.162561,0.124445 1.732226,0.156137 0.386956,0.02153 0.738616,0.02517 0.965233,0.01 0.311031,-0.02083 0.534416,-0.07068 0.727378,-0.162322 0.195304,-0.09276 0.397208,-0.256953 0.547365,-0.445135 0.296199,-0.371206 0.37757,-0.820715 0.22484,-1.242057 -0.07644,-0.210873 -0.202516,-0.398004 -0.40418,-0.599911 -0.07599,-0.07608 -0.129746,-0.120938 -0.204202,-0.170399 -0.238433,-0.158387 -0.548236,-0.232814 -1.16698,-0.280352 -0.17154,-0.01318 -0.273797,-0.01947 -0.542969,-0.03342 -0.729457,-0.0378 -1.261152,-0.08628 -1.888672,-0.172217 -0.153143,-0.02097 -0.138672,-0.01746 -0.138672,-0.03364 0,-0.01271 6.67e-4,-0.01341 0.01074,-0.01136 0.04915,0.01002 0.455033,0.06145 0.678711,0.08599 0.699335,0.07673 1.340586,0.114799 2.078125,0.123385 0.31284,0.0036 0.351089,0.0056 0.451172,0.02322 0.601774,0.105892 1.109801,0.602676 1.230552,1.203318 0.02109,0.104913 0.025,0.147632 0.025,0.273455 0,0.125884 -0.0039,0.168529 -0.02504,0.273686 -0.09069,0.451101 -0.403781,0.855421 -0.826604,1.067458 -0.15259,0.07652 -0.300868,0.122679 -0.466401,0.145189 -0.0406,0.0055 -0.182923,0.01441 -0.207031,0.01293 -0.0054,-3.3e-4 -0.124024,-0.0019 -0.263672,-0.0034 z"
     id="path3" />
  <path
     style="fill:#e6e6e6;stroke-width:0.00390625"
     d="m 23.755859,47.491882 c -0.709521,-0.01286 -1.369199,-0.05355 -2.089843,-0.128895 -0.134044,-0.01401 -0.414682,-0.04562 -0.433145,-0.04878 l -0.01322,-0.0023 0.0025,-0.02382 c 0.0014,-0.0131 0.0034,-0.02476 0.0046,-0.0259 0.0011,-0.0011 0.05695,0.0046 0.124014,0.01279 0.7286,0.08886 1.400564,0.145593 2.024278,0.170894 0.153535,0.0062 0.557641,0.0063 0.652344,1.15e-4 0.206081,-0.01346 0.360585,-0.03497 0.496093,-0.06908 0.274208,-0.06902 0.493653,-0.198547 0.709019,-0.418507 0.22283,-0.227583 0.35609,-0.484714 0.398535,-0.768988 0.01056,-0.07072 0.01452,-0.207863 0.008,-0.277171 -0.02376,-0.252694 -0.116811,-0.485954 -0.278862,-0.699042 -0.07233,-0.0951 -0.213654,-0.246119 -0.291772,-0.311769 -0.255222,-0.214491 -0.562451,-0.303936 -1.230468,-0.358234 -0.159467,-0.01296 -0.25508,-0.01909 -0.552735,-0.03541 -0.794037,-0.04354 -1.23069,-0.082 -1.822265,-0.160489 -0.253856,-0.03368 -0.249563,-0.03279 -0.238835,-0.0497 0.0026,-0.0041 0.01646,-0.0032 0.07318,0.0047 0.663003,0.09325 1.398814,0.158677 2.066042,0.183698 0.239618,0.009 0.281236,0.01006 0.621094,0.01602 0.176172,0.0031 0.337891,0.0075 0.359375,0.0097 0.172474,0.01816 0.35775,0.07486 0.515625,0.157797 0.399304,0.20976 0.692983,0.580248 0.796508,1.004825 0.02803,0.114965 0.03735,0.196203 0.03735,0.32555 0,0.09272 -0.0044,0.154066 -0.01585,0.222656 -0.09847,0.588088 -0.565349,1.089199 -1.14813,1.232297 -0.165637,0.04067 -0.276066,0.04594 -0.773395,0.03693 z"
     id="path5" />
  <path
     style="fill:#e6e6e6;stroke-width:0.00390625"
     d="m 23.585937,47.446577 c -0.552689,-0.0094 -1.470319,-0.08162 -2.201171,-0.173288 -0.08486,-0.01064 -0.156495,-0.01936 -0.15918,-0.01937 -0.0039,-1.3e-5 -0.0049,-0.296074 -0.0049,-1.467247 V 44.31944 l 0.0127,0.0024 c 0.05443,0.01011 0.425258,0.05751 0.62793,0.08026 0.460165,0.05165 0.823133,0.08032 1.388672,0.109698 0.853023,0.04431 1.208267,0.09173 1.479568,0.197503 0.174141,0.06789 0.30024,0.153505 0.446258,0.30298 0.156488,0.160192 0.251163,0.289457 0.330065,0.450652 0.06603,0.134893 0.104166,0.260348 0.12364,0.406705 0.0092,0.06944 0.0093,0.222532 2.4e-5,0.291863 -0.04116,0.309285 -0.189121,0.590529 -0.434915,0.826702 -0.227513,0.218609 -0.451705,0.33878 -0.74622,0.399988 -0.161761,0.03362 -0.320101,0.04977 -0.559748,0.05709 -0.118052,0.0036 -0.158271,0.0038 -0.302735,0.0013 z"
     id="path6" />
  <path
     style="fill:#e6e6e6;stroke-width:0.00390625"
     d="m 23.518054,47.445036 c -0.562404,-0.01338 -1.426643,-0.08319 -2.149888,-0.173661 -0.07681,-0.0096 -0.141405,-0.01747 -0.143555,-0.01747 -0.0026,0 -0.0039,-0.491223 -0.0039,-1.467231 v -1.467232 l 0.0127,0.0022 c 0.02329,0.0041 0.210583,0.0295 0.319336,0.04327 0.536642,0.06794 1.039258,0.112496 1.589844,0.140929 0.398201,0.02056 0.598205,0.03347 0.789063,0.05091 0.533569,0.04877 0.814578,0.12404 1.039062,0.278315 0.0659,0.04529 0.109746,0.0829 0.189748,0.162768 0.162233,0.16196 0.261072,0.294296 0.341469,0.457194 0.07132,0.144517 0.111748,0.278485 0.129656,0.429688 0.0074,0.06275 0.0062,0.218268 -0.0022,0.279296 -0.04936,0.359209 -0.239769,0.677013 -0.559852,0.934438 -0.26118,0.210053 -0.536088,0.305105 -0.974717,0.337019 -0.167344,0.01218 -0.343133,0.01508 -0.576798,0.0095 z"
     id="path7" />
  <path
     style="fill:#e6e6e6;stroke-width:0.00390625"
     d="m 23.582031,47.446584 c -0.556185,-0.0094 -1.481136,-0.08282 -2.232002,-0.177255 -0.06744,-0.0085 -0.124135,-0.01542 -0.125977,-0.01542 -0.0019,0 -0.0033,-0.654428 -0.0033,-1.467231 v -1.467232 l 0.0127,0.0023 c 0.04585,0.0082 0.422731,0.05676 0.579102,0.07458 0.469519,0.05349 0.849975,0.08419 1.40625,0.11347 0.143945,0.0076 0.303027,0.0164 0.353516,0.01962 0.857861,0.05462 1.188228,0.135051 1.46875,0.357582 0.04958,0.03933 0.182793,0.171467 0.238,0.236076 0.104277,0.122035 0.170054,0.220943 0.230862,0.347141 0.224568,0.466059 0.152126,0.974677 -0.198694,1.395046 -0.04398,0.0527 -0.163827,0.170294 -0.22134,0.217179 -0.22147,0.180545 -0.425906,0.271204 -0.725055,0.321532 -0.140561,0.02365 -0.267908,0.03482 -0.470258,0.04125 -0.115504,0.0037 -0.164325,0.0039 -0.3125,0.0014 z"
     id="path8" />
  <path
     style="fill:#e6e6e6;stroke-width:0.00390625"
     d="m 23.498047,47.444894 c -0.119067,-0.0032 -0.328636,-0.01229 -0.441406,-0.01917 -0.598235,-0.03646 -1.127332,-0.08461 -1.674427,-0.152391 -0.08627,-0.01069 -0.157897,-0.01943 -0.159179,-0.01943 -0.0013,0 -0.0023,-0.660283 -0.0023,-1.467296 v -1.467296 l 0.0166,0.0027 c 0.04153,0.0067 0.252391,0.03471 0.381836,0.05079 0.335063,0.04164 0.673171,0.07534 1,0.09967 0.221668,0.0165 0.312248,0.02208 0.638671,0.03933 0.40372,0.02134 0.617652,0.03678 0.814454,0.05879 0.487661,0.05454 0.746955,0.139183 0.96875,0.316234 0.07406,0.05912 0.212788,0.202428 0.29318,0.302859 0.113776,0.142137 0.208602,0.322675 0.256029,0.487447 0.109002,0.378701 0.03078,0.775231 -0.219389,1.112141 -0.04936,0.06648 -0.08508,0.107174 -0.15768,0.179664 -0.221377,0.221038 -0.44147,0.345631 -0.726828,0.411454 -0.240572,0.05549 -0.556363,0.07611 -0.988281,0.06453 z"
     id="path9" />
  <path
     style="fill:#e6e6e6;stroke-width:0.00390625"
     d="m 23.564453,47.446574 c -0.558653,-0.01093 -1.423958,-0.0796 -2.182933,-0.173233 -0.08665,-0.01069 -0.158279,-0.01944 -0.159179,-0.01944 -9.01e-4,0 -0.0016,-0.660058 -0.0016,-1.466797 0,-0.806738 0.0013,-1.466791 0.0029,-1.466785 0.0016,6e-6 0.04072,0.0053 0.08691,0.0118 0.515266,0.07235 1.087794,0.129289 1.628906,0.162003 0.05264,0.0032 0.196777,0.01111 0.320313,0.01763 0.392809,0.02071 0.607925,0.0363 0.810546,0.05876 0.511069,0.05665 0.775434,0.146967 1.001565,0.342179 0.0412,0.03557 0.138829,0.132916 0.181262,0.180743 0.01224,0.01379 0.02225,0.02312 0.02225,0.02073 0,-0.01237 -0.167012,-0.181039 -0.226563,-0.228809 -0.04793,-0.03845 -0.135508,-0.09598 -0.187677,-0.123288 -0.265426,-0.138938 -0.631812,-0.201823 -1.43537,-0.246361 -0.402269,-0.0223 -0.509858,-0.02862 -0.667969,-0.03928 -0.473266,-0.0319 -0.917439,-0.07707 -1.379396,-0.140298 -0.06243,-0.0085 -0.120777,-0.0167 -0.129667,-0.01812 -0.02085,-0.0033 -0.02928,-0.0095 -0.02573,-0.01872 0.0022,-0.0057 0.0055,-0.0067 0.01681,-0.0049 0.117218,0.01848 0.571235,0.07376 0.80509,0.09803 0.647302,0.06719 1.148337,0.0955 1.939453,0.10961 0.176172,0.0031 0.337891,0.0075 0.359375,0.0098 0.256717,0.02659 0.521377,0.133524 0.738281,0.298295 0.103716,0.07879 0.236212,0.209905 0.295547,0.292471 l 0.0077,0.01074 h -0.05063 c -0.03949,0 -0.05109,0.0012 -0.0527,0.0054 -0.0012,0.0031 0.0092,0.01874 0.024,0.03622 0.132277,0.156371 0.237838,0.352575 0.28783,0.53498 0.108018,0.394126 0.01616,0.803014 -0.257038,1.144102 -0.127593,0.159304 -0.313118,0.317176 -0.481285,0.409549 -0.284614,0.156337 -0.660087,0.215389 -1.291016,0.203041 z"
     id="path10" />
  <path
     style="fill:#e6e6e6;stroke-width:0.00390625"
     d="m 23.753906,47.491874 c -0.741383,-0.01334 -1.438933,-0.05795 -2.197265,-0.14053 -0.155478,-0.01693 -0.308496,-0.03447 -0.32377,-0.03711 l -0.01322,-0.0023 0.0025,-0.02382 c 0.0014,-0.0131 0.0034,-0.02475 0.0046,-0.02588 0.0011,-0.0011 0.06397,0.0054 0.139639,0.01452 0.462781,0.0558 0.788884,0.08856 1.190311,0.119589 0.397484,0.03072 0.705904,0.04777 0.916015,0.05063 l 0.121094,0.0016 -0.111328,-0.0034 c -0.582907,-0.0177 -1.404065,-0.08512 -2.118665,-0.173927 -0.07708,-0.0096 -0.140803,-0.01742 -0.141602,-0.01742 -7.98e-4,0 -0.0015,-0.660058 -0.0015,-1.466797 0,-0.806738 0.0013,-1.466795 0.0029,-1.466794 0.0016,2e-6 0.03457,0.0044 0.07324,0.0098 0.633075,0.0885 1.174558,0.138862 1.931641,0.179639 0.496813,0.02676 0.690098,0.04149 0.923828,0.0704 0.454298,0.0562 0.706408,0.147661 0.921875,0.334448 0.03618,0.03137 0.135288,0.130023 0.179205,0.178394 0.01037,0.01142 0.01966,0.01996 0.02064,0.01897 0.0028,-0.0028 -0.08158,-0.09278 -0.139168,-0.148478 -0.227766,-0.220309 -0.47303,-0.320114 -0.941537,-0.383139 -0.208962,-0.02811 -0.47027,-0.04894 -0.910156,-0.07254 -0.711677,-0.03818 -1.145635,-0.07495 -1.683594,-0.142642 -0.198725,-0.02501 -0.362814,-0.04828 -0.370889,-0.0526 -0.009,-0.0048 -0.01066,-0.01497 -0.0029,-0.01795 0.0028,-0.0011 0.03578,0.0024 0.07324,0.0077 0.187515,0.02671 0.596322,0.07525 0.823966,0.09784 0.629393,0.06245 1.088916,0.08754 1.867187,0.101947 0.327308,0.0061 0.357975,0.0076 0.441407,0.02154 0.351178,0.05888 0.69545,0.265617 0.929993,0.558457 0.187148,0.233664 0.306214,0.522025 0.328094,0.794596 0.0053,0.06583 0.0028,0.246097 -0.0042,0.297052 -0.08859,0.652367 -0.622851,1.200865 -1.270844,1.304705 -0.10936,0.01752 -0.259697,0.02056 -0.66082,0.01334 z m 0.167969,-0.04269 c 0.578404,-0.01817 0.902818,-0.124454 1.212891,-0.397364 0.28117,-0.247473 0.452964,-0.549787 0.498087,-0.876507 0.0087,-0.06295 0.01183,-0.196844 0.0061,-0.261226 -0.02194,-0.247496 -0.115611,-0.483425 -0.276713,-0.696974 -0.0394,-0.05223 -0.07986,-0.100423 -0.08228,-0.09801 -0.0011,0.0011 0.0051,0.01031 0.01368,0.02052 0.110684,0.131525 0.191965,0.2634 0.251276,0.407689 0.195021,0.474438 0.08039,0.998233 -0.305552,1.396226 -0.293967,0.303143 -0.583523,0.436887 -1.047988,0.48406 -0.118471,0.01203 -0.302867,0.02033 -0.507812,0.02284 -0.06858,8.42e-4 -0.06694,9.73e-4 0.02148,0.0017 0.05264,4.48e-4 0.150195,-8.97e-4 0.216797,-0.003 z"
     id="path11" />
  <path
     style="fill:#e6e6e6;stroke-width:0.00390625"
     d=""
     id="path12" />
  <path
     style="fill:#e6e6e6;stroke-width:0.00390625"
     d="m 23.75,47.492076 c -0.818828,-0.0161 -1.544045,-0.06535 -2.386719,-0.162087 -0.06445,-0.0074 -0.123133,-0.01449 -0.1304,-0.01574 l -0.01321,-0.0023 0.0021,-0.02347 c 0.0012,-0.01291 0.0032,-0.02456 0.0045,-0.02589 0.0013,-0.0013 0.07927,0.0068 0.173194,0.01804 0.44838,0.05373 0.766595,0.08539 1.182493,0.117664 0.312404,0.02424 0.72608,0.04785 0.810547,0.04627 0.04182,-7.85e-4 0.03417,-0.0013 -0.105469,-0.0071 -0.430817,-0.0178 -1.056565,-0.06752 -1.576172,-0.12524 -0.140843,-0.01565 -0.448052,-0.05226 -0.475585,-0.05669 l -0.01465,-0.0024 v -1.466454 c 0,-0.806549 0.0013,-1.466454 0.003,-1.466454 0.0016,0 0.05394,0.0069 0.116211,0.01542 0.318139,0.04334 0.575595,0.07323 0.874931,0.101572 0.342858,0.03247 0.564892,0.04796 1.123047,0.07836 0.241683,0.01316 0.398275,0.02346 0.535156,0.03519 0.653731,0.05604 0.950594,0.14634 1.204299,0.366325 0.02106,0.01826 0.07458,0.07029 0.118946,0.115623 0.04436,0.04534 0.0746,0.07452 0.06719,0.06486 -0.02402,-0.03131 -0.176405,-0.181237 -0.217326,-0.213811 -0.221073,-0.17598 -0.473873,-0.259771 -0.951552,-0.315395 -0.191526,-0.0223 -0.391735,-0.03705 -0.850459,-0.06267 -0.58756,-0.0328 -0.886674,-0.05577 -1.298829,-0.09972 -0.253256,-0.02701 -0.701681,-0.08548 -0.716546,-0.09343 -0.0092,-0.0049 -0.0107,-0.01499 -0.0028,-0.01804 0.0029,-0.0011 0.04291,0.0032 0.08887,0.0097 0.04596,0.0065 0.139812,0.01881 0.208562,0.02746 0.47422,0.05965 0.876238,0.09865 1.310547,0.127112 0.174768,0.01145 0.290532,0.01705 0.646485,0.03123 0.05772,0.0023 0.321869,0.0082 0.621093,0.0139 0.111719,0.0021 0.220704,0.0056 0.242188,0.0077 0.166942,0.01648 0.347625,0.07123 0.507812,0.153869 0.417669,0.21547 0.720318,0.606539 0.814339,1.052254 0.02033,0.09639 0.02393,0.129761 0.02623,0.243105 0.0032,0.156895 -0.0055,0.242356 -0.03829,0.375 -0.07167,0.290331 -0.246205,0.573392 -0.480011,0.778476 -0.237768,0.208559 -0.520385,0.337196 -0.818359,0.372488 -0.06209,0.0074 -0.36355,0.0099 -0.605469,0.0052 z m 0.04004,-0.04187 c -0.0231,-6.91e-4 -0.06089,-6.91e-4 -0.08398,0 -0.0231,6.91e-4 -0.0042,0.0013 0.04199,0.0013 0.04619,0 0.06509,-5.65e-4 0.04199,-0.0013 z m -0.261719,-0.0039 c -0.01665,-7.32e-4 -0.0439,-7.32e-4 -0.06055,0 -0.01665,7.32e-4 -0.003,0.0013 0.03027,0.0013 0.0333,0 0.04692,-6e-4 0.03027,-0.0013 z m 0.586914,-0.0069 c 0.459592,-0.03787 0.732725,-0.14054 1.009987,-0.37965 0.302415,-0.260802 0.486131,-0.598662 0.513383,-0.94413 0.02374,-0.300962 -0.06158,-0.596199 -0.248747,-0.86073 -0.03244,-0.04585 -0.102875,-0.13382 -0.107144,-0.13382 -0.0019,0 0.01474,0.02248 0.03693,0.04995 0.138302,0.171221 0.233667,0.356478 0.281317,0.546495 0.06158,0.245579 0.04699,0.494161 -0.04307,0.733636 -0.03579,0.09515 -0.09889,0.214054 -0.160602,0.302599 -0.114967,0.164958 -0.295475,0.337011 -0.468525,0.446578 -0.247673,0.156814 -0.530176,0.226047 -0.999742,0.245006 l -0.08136,0.0033 0.09766,-0.0016 c 0.05371,-8.96e-4 0.130176,-0.0043 0.169922,-0.0076 z"
     id="path13" />
  <path
     style="fill:#e6e6e6;stroke-width:0.00390625"
     d="m 23.740234,47.492069 c -0.656536,-0.01275 -1.291902,-0.05018 -1.923828,-0.113354 -0.192831,-0.01928 -0.550454,-0.0588 -0.583525,-0.06449 l -0.01321,-0.0023 0.0021,-0.02347 c 0.0012,-0.01291 0.0032,-0.0245 0.0044,-0.02576 0.0025,-0.0025 0.03242,5.75e-4 0.17808,0.01827 0.39745,0.04829 0.772528,0.08571 1.15625,0.115342 0.296668,0.02291 0.669654,0.04561 0.730469,0.04447 0.01677,-3.16e-4 0.0026,-0.0019 -0.0332,-0.0037 -0.522789,-0.02618 -1.107134,-0.07431 -1.634251,-0.134609 -0.154829,-0.01771 -0.361032,-0.04266 -0.388209,-0.04697 l -0.01465,-0.0023 v -1.466985 -1.466984 l 0.01855,0.0026 c 0.212062,0.02985 0.564198,0.07371 0.576765,0.07184 0.0045,-6.7e-4 -0.01202,-0.0035 -0.03673,-0.0064 -0.119793,-0.0137 -0.453309,-0.05696 -0.519121,-0.06733 -0.01374,-0.0022 -0.02824,-0.0057 -0.03223,-0.0078 -0.0084,-0.0045 -0.0096,-0.01466 -0.0021,-0.01754 0.0028,-0.0011 0.04985,0.0042 0.104492,0.01167 0.335548,0.04607 0.77959,0.09512 1.114977,0.123165 0.506251,0.04233 0.87354,0.05939 1.5625,0.07256 0.315351,0.006 0.34502,0.0076 0.433594,0.02353 0.574856,0.103127 1.062693,0.559175 1.210674,1.131781 0.02898,0.112143 0.03737,0.175809 0.04001,0.303573 0.0025,0.122046 -0.0015,0.189064 -0.0166,0.273545 -0.115951,0.650912 -0.668497,1.175163 -1.320025,1.252427 -0.06204,0.0074 -0.369327,0.0099 -0.615235,0.0052 z m 0.02637,-0.04181 c -0.01021,-8.05e-4 -0.0269,-8.05e-4 -0.03711,0 -0.0102,8.04e-4 -0.0019,0.0015 0.01855,0.0015 0.02041,0 0.02876,-6.59e-4 0.01855,-0.0015 z m -0.253803,-0.0039 c -0.008,-8.39e-4 -0.02206,-8.51e-4 -0.03125,-2.5e-5 -0.0092,8.25e-4 -0.0026,0.0015 0.01454,0.0015 0.01719,1.4e-5 0.0247,-6.61e-4 0.01671,-0.0015 z m 0.598529,-0.0072 c 0.450556,-0.03622 0.719251,-0.134009 0.991872,-0.360992 0.189096,-0.15744 0.343661,-0.35803 0.432063,-0.56072 0.05665,-0.129892 0.09647,-0.284772 0.101244,-0.393802 l 0.0017,-0.03972 -0.0036,0.03711 c -0.02157,0.225131 -0.10754,0.451276 -0.244678,0.643668 -0.147665,0.20716 -0.381709,0.408132 -0.592527,0.508799 -0.220477,0.105278 -0.455297,0.152381 -0.85608,0.171723 l -0.07031,0.0034 0.08398,-0.0018 c 0.04619,-10e-4 0.116504,-0.0044 0.15625,-0.0076 z m -0.719726,0.0032 c -0.01235,-7.75e-4 -0.03257,-7.75e-4 -0.04492,0 -0.01235,7.75e-4 -0.0022,0.0014 0.02246,0.0014 0.02471,0 0.03481,-6.34e-4 0.02246,-0.0014 z m 2.249778,-1.449262 c -0.0024,-0.09343 -0.0083,-0.147376 -0.02454,-0.226706 -0.03411,-0.166329 -0.109042,-0.339448 -0.211706,-0.489114 -0.03243,-0.04728 -0.08709,-0.118167 -0.08937,-0.115893 -9.57e-4,9.56e-4 0.01247,0.01995 0.02984,0.04221 0.191417,0.245329 0.292831,0.528706 0.293028,0.818796 2.2e-5,0.03276 0.0012,0.05957 0.0026,0.05957 0.0014,0 0.0015,-0.03999 1.96e-4,-0.08887 z M 25.298307,45.13724 c -0.01702,-0.02027 -0.01986,-0.01742 -0.0034,0.0034 0.007,0.0088 0.01352,0.01513 0.01456,0.01409 10e-4,-10e-4 -0.004,-0.0089 -0.01117,-0.01747 z m -0.03812,-0.04251 c -0.0021,-0.0038 -0.01473,-0.01738 -0.02815,-0.03027 l -0.02439,-0.02344 0.02672,0.03027 c 0.02717,0.03078 0.03255,0.03567 0.02582,0.02344 z m -0.171945,-0.173259 c -0.111463,-0.105597 -0.281483,-0.198859 -0.461288,-0.253033 -0.09343,-0.02815 -0.283971,-0.06984 -0.299971,-0.06563 -0.0047,0.0012 -0.0039,0.0019 0.0024,0.0022 0.01882,9.4e-4 0.184396,0.0359 0.233119,0.04922 0.220126,0.06018 0.375339,0.139759 0.517578,0.265354 0.01826,0.01613 0.03408,0.02931 0.03516,0.02931 0.0011,-6e-6 -0.01107,-0.01235 -0.02699,-0.02743 z m -0.771835,-0.322023 c -0.01792,-0.0069 -0.314115,-0.04293 -0.380859,-0.04635 l -0.03711,-0.0019 0.0332,0.0038 c 0.01826,0.0021 0.08154,0.0091 0.140625,0.01557 0.05908,0.0065 0.133789,0.01591 0.166015,0.02092 0.05328,0.0083 0.08813,0.01184 0.07813,0.008 z m -0.443359,-0.05271 c -0.01396,-0.0016 -0.03506,-0.0028 -0.04687,-0.0026 l -0.02148,2.17e-4 0.02539,0.0026 c 0.01396,0.0014 0.03506,0.0026 0.04687,0.0026 l 0.02148,7.9e-5 z m -0.07813,-0.0063 c -0.02623,-0.0035 -0.265065,-0.01857 -0.519531,-0.03269 -0.425378,-0.02359 -0.671484,-0.04021 -0.927735,-0.06266 -0.141273,-0.01238 -0.195055,-0.01628 -0.185547,-0.01346 0.0084,0.0025 0.245284,0.02344 0.394532,0.0349 0.244289,0.01875 0.329181,0.02407 0.785156,0.04912 0.205877,0.01131 0.382204,0.02219 0.402344,0.02483 0.0054,7.03e-4 0.02119,0.0013 0.03516,0.0013 0.01396,0 0.021,-5.94e-4 0.01563,-0.0013 z m -1.66211,-0.114847 c -0.01289,-0.0016 -0.03047,-0.0028 -0.03906,-0.0027 -0.01478,1.79e-4 -0.01457,3.34e-4 0.0039,0.0029 0.01074,0.0015 0.02832,0.0027 0.03906,0.0027 l 0.01953,3.9e-5 z m -0.06342,-0.0065 c -0.0048,-9.27e-4 -0.01359,-9.51e-4 -0.01953,-5.3e-5 -0.0059,8.98e-4 -0.002,0.0017 0.0087,0.0017 0.01074,2.9e-5 0.0156,-7.06e-4 0.0108,-0.0016 z m -0.05181,-0.0052 c -0.01182,-0.0016 -0.02852,-0.0029 -0.03711,-0.0027 -0.01485,2.16e-4 -0.01465,3.61e-4 0.0039,0.0029 0.01074,0.0015 0.02744,0.0027 0.03711,0.0027 0.0173,6.3e-5 0.01724,1.7e-5 -0.0039,-0.0029 z m -0.113281,-0.01201 c -0.0333,-0.004 -0.06494,-0.0069 -0.07031,-0.0063 -0.01232,0.0013 0.08956,0.01351 0.113282,0.01359 0.0097,3.4e-5 -0.0097,-0.0032 -0.04297,-0.0073 z"
     id="path14" />
  <path
     style="fill:#e6e6e6;stroke-width:0.00390625"
     d="M 8.7460938,41.825566 C 8.2029026,41.358379 7.8475505,41.029508 7.3688722,40.550974 7.0705596,40.252752 6.9186421,40.094791 6.67173,39.826098 5.9660008,39.058114 5.2969362,38.225044 4.7110192,37.384766 4.670571,37.326758 4.6314438,37.270947 4.6240699,37.260742 l -0.013407,-0.01855 h 0.042538 0.042538 l 0.070026,0.100586 c 1.1202206,1.609091 2.4535525,3.081792 3.9550083,4.368414 0.076309,0.06539 0.1466211,0.125449 0.15625,0.133463 l 0.017508,0.01457 -0.054687,-2.9e-5 -0.054687,-3e-5 z"
     id="path15" />
</svg>
