<?xml version="1.0" encoding="UTF-8" standalone="no"?>
<svg
   version="1.1"
   viewBox="0 0 48 48"
   id="svg8"
   sodipodi:docname="os-installer.svg"
   inkscape:version="1.4 (e7c3feb100, 2024-10-09)"
   xmlns:inkscape="http://www.inkscape.org/namespaces/inkscape"
   xmlns:sodipodi="http://sodipodi.sourceforge.net/DTD/sodipodi-0.dtd"
   xmlns="http://www.w3.org/2000/svg"
   xmlns:svg="http://www.w3.org/2000/svg">
  <sodipodi:namedview
     id="namedview8"
     pagecolor="#ffffff"
     bordercolor="#000000"
     borderopacity="0.25"
     inkscape:showpageshadow="2"
     inkscape:pageopacity="0.0"
     inkscape:pagecheckerboard="0"
     inkscape:deskcolor="#d1d1d1"
     inkscape:zoom="16"
     inkscape:cx="22.03125"
     inkscape:cy="29.1875"
     inkscape:window-width="1290"
     inkscape:window-height="761"
     inkscape:window-x="547"
     inkscape:window-y="162"
     inkscape:window-maximized="0"
     inkscape:current-layer="svg8" />
  <defs
     id="defs2">
    <linearGradient
       id="bg"
       x2="0"
       y1="1"
       y2="47"
       gradientUnits="userSpaceOnUse">
      <stop
         style="stop-color:#726aac;stop-opacity:1;"
         offset="1"
         id="stop1" />
      <stop
         style="stop-color:#141222;stop-opacity:1;"
         offset="1"
         id="stop2" />
    </linearGradient>
  </defs>
  <path
     d="m36.3 5c5.86 4.06 9.69 10.8 9.69 18.5 0 12.4-10.1 22.5-22.5 22.5-7.67 0-14.4-3.83-18.5-9.69 1.04 1.82 2.31 3.5 3.78 4.97 4.08 3.71 9.51 5.97 15.5 5.97 12.7 0 23-10.3 23-23 0-5.95-2.26-11.4-5.97-15.5-1.47-1.48-3.15-2.74-4.97-3.78zm4.97 3.78c3.85 4.11 6.22 9.64 6.22 15.7 0 12.7-10.3 23-23 23-6.08 0-11.6-2.36-15.7-6.22 4.16 4.14 9.88 6.72 16.2 6.72 12.7 0 23-10.3 23-23 0-6.34-2.58-12.1-6.72-16.2z"
     style="opacity:.05"
     id="path2" />
  <path
     d="m41.3 8.78c3.71 4.08 5.97 9.51 5.97 15.5 0 12.7-10.3 23-23 23-5.95 0-11.4-2.26-15.5-5.97 4.11 3.85 9.64 6.22 15.7 6.22 12.7 0 23-10.3 23-23 0-6.08-2.36-11.6-6.22-15.7z"
     style="opacity:.1"
     id="path3" />
  <path
     d="m31.2 2.38c8.62 3.15 14.8 11.4 14.8 21.1 0 12.4-10.1 22.5-22.5 22.5-9.71 0-18-6.14-21.1-14.8a23 23 0 0044.9-7 23 23 0 00-16-21.9z"
     style="opacity:0.2;fill:#6f6f91"
     id="path4" />
  <circle
     cx="24"
     cy="24"
     r="23"
     style="fill:url(#bg)"
     id="circle4" />
  <path
     d="m40 7.53c3.71 4.08 5.97 9.51 5.97 15.5 0 12.7-10.3 23-23 23-5.95 0-11.4-2.26-15.5-5.97 4.18 4.29 10 6.97 16.5 6.97 12.7 0 23-10.3 23-23 0-6.46-2.68-12.3-6.97-16.5z"
     style="opacity:.1"
     id="path5" />
  <path
     d="m22 10 2 11 1 1 7-7h-4v-5zm-1 14s-4.06 4.03-4 4c0 .554.446 1 1 1h1l-2 3c0 .554.446 1 1 1h1c-.0422.138-2 3-2 3 0 .554.446 1 1 1h1c.056.0186 1 2 1 2 0 .554.446 1 1 1s1-.446 1-1v-1h2v1c0 .554.446 1 1 1s1-.446 1-1v-1h2v1c0 .554.446 1 1 1s1-.446 1-1v-1c.554 0 1-.446 1-1h1c.554 0 1-.446 1-1s-.446-1-1-1h-1v-2h1c.554 0 1-.446 1-1s-.446-1-1-1h-1v-2h1c.554 0 1-.446 1-1s-.446-1-1-1l-2-1v-1c0-.554-.446-1-1-1-.242.168-3 2-3 2v-1c0-.554-.446-1-1-1-.11.12-3 2-3 2v-1c0-.554-.446-1-1-1z"
     style="opacity:.1"
     id="path6" />
  <path
     d="m21 9v5h-4l7 7 7-7h-4v-5z"
     style="fill:#f1e86f"
     id="path7" />
  <path
     d="m20 23c-.554 0-1 .446-1 1v2h-2c-.554 0-1 .446-1 1s.446 1 1 1h2v2h-2c-.554 0-1 .446-1 1s.446 1 1 1h2v2h-2c-.554 0-1 .446-1 1s.446 1 1 1h2v2c0 .554.446 1 1 1s1-.446 1-1v-2h2v2c0 .554.446 1 1 1s1-.446 1-1v-2h2v2c0 .554.446 1 1 1s1-.446 1-1v-2h2c.554 0 1-.446 1-1s-.446-1-1-1h-2v-2h2c.554 0 1-.446 1-1s-.446-1-1-1h-2v-2h2c.554 0 1-.446 1-1s-.446-1-1-1h-2v-2c0-.554-.446-1-1-1s-1 .446-1 1v2h-2v-2c0-.554-.446-1-1-1s-1 .446-1 1v2h-2v-2c0-.554-.446-1-1-1z"
     style="fill:#d9d9d9"
     id="path8" />
  <rect
     x="18"
     y="25"
     width="12"
     height="12"
     ry="1"
     style="fill:#666"
     id="rect8" />
</svg>
